<mxfile host="app.diagrams.net" modified="2024-01-19T15:13:49.396Z" agent="Mozilla/5.0 (Windows NT 10.0; Win64; x64) AppleWebKit/537.36 (KHTML, like Gecko) Chrome/120.0.0.0 Safari/537.36" etag="AXPo3MSuwh5J9dKrc8tf" version="22.1.21" type="github">
  <diagram name="Page-1" id="2c0d36ab-eaac-3732-788b-9136903baeff">
    <mxGraphModel dx="1273" dy="869" grid="1" gridSize="10" guides="1" tooltips="1" connect="1" arrows="1" fold="1" page="1" pageScale="1.5" pageWidth="1169" pageHeight="827" background="none" math="0" shadow="0">
      <root>
        <mxCell id="0" />
        <mxCell id="1" parent="0" />
        <mxCell id="123" value="" style="fillColor=#AE4132;strokeColor=none;opacity=30;" parent="1" vertex="1">
          <mxGeometry x="772" y="175.50000000000003" width="210" height="99.99999999999994" as="geometry" />
        </mxCell>
        <mxCell id="122" value="" style="fillColor=#10739E;strokeColor=none;opacity=30;" parent="1" vertex="1">
          <mxGeometry x="140" y="325.5" width="1480" height="100" as="geometry" />
        </mxCell>
        <mxCell id="110" value="" style="fillColor=#12AAB5;strokeColor=none;opacity=30;" parent="1" vertex="1">
          <mxGeometry x="1264" y="450" width="490" height="70" as="geometry" />
        </mxCell>
        <mxCell id="109" value="" style="fillColor=#12AAB5;strokeColor=none;opacity=30;" parent="1" vertex="1">
          <mxGeometry y="450" width="500" height="70" as="geometry" />
        </mxCell>
        <mxCell id="108" value="" style="fillColor=#12AAB5;strokeColor=none;opacity=30;" parent="1" vertex="1">
          <mxGeometry x="730" y="450.5" width="300" height="70" as="geometry" />
        </mxCell>
        <mxCell id="2" value="User Name&#xa;Password" style="rounded=1;fillColor=#23445D;gradientColor=none;strokeColor=none;fontColor=#FFFFFF;fontStyle=1;fontFamily=Tahoma;fontSize=14" parent="1" vertex="1">
          <mxGeometry x="782" y="185.5" width="190" height="80" as="geometry" />
        </mxCell>
        <mxCell id="4" value="Request For " style="rounded=1;fillColor=#23445D;gradientColor=none;strokeColor=none;fontColor=#FFFFFF;fontStyle=1;fontFamily=Tahoma;fontSize=14" parent="1" vertex="1">
          <mxGeometry x="1415.9999999999998" y="335.5" width="190" height="80" as="geometry" />
        </mxCell>
        <mxCell id="9" value="" style="edgeStyle=elbowEdgeStyle;elbow=vertical;strokeWidth=2;rounded=0" parent="1" source="2" target="4" edge="1">
          <mxGeometry x="337" y="215.5" width="100" height="100" as="geometry">
            <mxPoint x="337" y="315.5" as="sourcePoint" />
            <mxPoint x="437" y="215.5" as="targetPoint" />
          </mxGeometry>
        </mxCell>
        <mxCell id="10" value="Working hours" style="rounded=1;fillColor=#23445D;gradientColor=none;strokeColor=none;fontColor=#FFFFFF;fontStyle=1;fontFamily=Tahoma;fontSize=14" parent="1" vertex="1">
          <mxGeometry x="515" y="335.5" width="190" height="80" as="geometry" />
        </mxCell>
        <mxCell id="12" value="My Roster" style="rounded=1;fillColor=#23445D;gradientColor=none;strokeColor=none;fontColor=#FFFFFF;fontStyle=1;fontFamily=Tahoma;fontSize=14" parent="1" vertex="1">
          <mxGeometry x="154.9999999999999" y="335.5" width="190" height="80" as="geometry" />
        </mxCell>
        <mxCell id="13" value="Home Page" style="rounded=1;fillColor=#23445D;gradientColor=none;strokeColor=none;fontColor=#FFFFFF;fontStyle=1;fontFamily=Tahoma;fontSize=14" parent="1" vertex="1">
          <mxGeometry x="782" y="335.5" width="190" height="80" as="geometry" />
        </mxCell>
        <mxCell id="14" value="start working" style="rounded=1;fillColor=#23445D;gradientColor=none;strokeColor=none;fontColor=#FFFFFF;fontStyle=1;fontFamily=Tahoma;fontSize=14" parent="1" vertex="1">
          <mxGeometry x="740" y="455" width="130" height="60" as="geometry" />
        </mxCell>
        <mxCell id="25" value="Updated Roster" style="rounded=1;fillColor=#23445D;gradientColor=none;strokeColor=none;fontColor=#FFFFFF;fontStyle=1;fontFamily=Tahoma;fontSize=14" parent="1" vertex="1">
          <mxGeometry x="10" y="455.5" width="130" height="60" as="geometry" />
        </mxCell>
        <mxCell id="28" value="Show Availability" style="rounded=1;fillColor=#23445D;gradientColor=none;strokeColor=none;fontColor=#FFFFFF;fontStyle=1;fontFamily=Tahoma;fontSize=14" parent="1" vertex="1">
          <mxGeometry x="185" y="455.5" width="130" height="60" as="geometry" />
        </mxCell>
        <mxCell id="33" value="History" style="rounded=1;fillColor=#23445D;gradientColor=none;strokeColor=none;fontColor=#FFFFFF;fontStyle=1;fontFamily=Tahoma;fontSize=14" parent="1" vertex="1">
          <mxGeometry x="360" y="455.5" width="130" height="60" as="geometry" />
        </mxCell>
        <mxCell id="44" value="Cancel My Shift " style="rounded=1;fillColor=#23445D;gradientColor=none;strokeColor=none;fontColor=#FFFFFF;fontStyle=1;fontFamily=Tahoma;fontSize=14" parent="1" vertex="1">
          <mxGeometry x="1271" y="455.50000000000006" width="130" height="60" as="geometry" />
        </mxCell>
        <mxCell id="48" value="Day Off" style="rounded=1;fillColor=#23445D;gradientColor=none;strokeColor=none;fontColor=#FFFFFF;fontStyle=1;fontFamily=Tahoma;fontSize=14" parent="1" vertex="1">
          <mxGeometry x="1446" y="455.50000000000006" width="130" height="60" as="geometry" />
        </mxCell>
        <mxCell id="52" value="Others" style="rounded=1;fillColor=#23445D;gradientColor=none;strokeColor=none;fontColor=#FFFFFF;fontStyle=1;fontFamily=Tahoma;fontSize=14" parent="1" vertex="1">
          <mxGeometry x="1621" y="455.50000000000006" width="130" height="60" as="geometry" />
        </mxCell>
        <mxCell id="59" value="" style="edgeStyle=elbowEdgeStyle;elbow=vertical;strokeWidth=2;rounded=0" parent="1" source="2" target="12" edge="1">
          <mxGeometry x="347" y="225.5" width="100" height="100" as="geometry">
            <mxPoint x="861.9999999999999" y="275.5" as="sourcePoint" />
            <mxPoint x="1466.9999999999998" y="345.5" as="targetPoint" />
          </mxGeometry>
        </mxCell>
        <mxCell id="61" value="" style="edgeStyle=elbowEdgeStyle;elbow=vertical;strokeWidth=2;rounded=0" parent="1" source="2" target="13" edge="1">
          <mxGeometry x="-23" y="135.5" width="100" height="100" as="geometry">
            <mxPoint x="-23" y="235.5" as="sourcePoint" />
            <mxPoint x="77" y="135.5" as="targetPoint" />
            <Array as="points">
              <mxPoint x="877" y="310" />
            </Array>
          </mxGeometry>
        </mxCell>
        <mxCell id="62" value="" style="edgeStyle=elbowEdgeStyle;elbow=vertical;strokeWidth=2;rounded=0;exitX=0.553;exitY=1.021;exitDx=0;exitDy=0;exitPerimeter=0;entryX=0.451;entryY=0.055;entryDx=0;entryDy=0;entryPerimeter=0;" parent="1" target="14" edge="1">
          <mxGeometry x="-23" y="135.5" width="100" height="100" as="geometry">
            <mxPoint x="876.44" y="415.5" as="sourcePoint" />
            <mxPoint x="795" y="452.9" as="targetPoint" />
            <Array as="points">
              <mxPoint x="840" y="440" />
            </Array>
          </mxGeometry>
        </mxCell>
        <mxCell id="100" value="" style="edgeStyle=elbowEdgeStyle;elbow=vertical;strokeWidth=2;rounded=0" parent="1" source="12" target="25" edge="1">
          <mxGeometry x="-23" y="135.5" width="100" height="100" as="geometry">
            <mxPoint x="-430" y="235.5" as="sourcePoint" />
            <mxPoint x="-330" y="135.5" as="targetPoint" />
          </mxGeometry>
        </mxCell>
        <mxCell id="101" value="" style="edgeStyle=elbowEdgeStyle;elbow=vertical;strokeWidth=2;rounded=0" parent="1" source="12" edge="1">
          <mxGeometry x="-23" y="135.5" width="100" height="100" as="geometry">
            <mxPoint x="-430" y="235.5" as="sourcePoint" />
            <mxPoint x="250" y="455.5" as="targetPoint" />
          </mxGeometry>
        </mxCell>
        <mxCell id="102" value="" style="edgeStyle=elbowEdgeStyle;elbow=vertical;strokeWidth=2;rounded=0" parent="1" source="12" target="33" edge="1">
          <mxGeometry x="-23" y="135.5" width="100" height="100" as="geometry">
            <mxPoint x="-430" y="235.5" as="sourcePoint" />
            <mxPoint x="-330" y="135.5" as="targetPoint" />
          </mxGeometry>
        </mxCell>
        <mxCell id="104" value="" style="edgeStyle=elbowEdgeStyle;elbow=vertical;strokeWidth=2;rounded=0" parent="1" source="4" target="48" edge="1">
          <mxGeometry x="-23" y="135.5" width="100" height="100" as="geometry">
            <mxPoint x="31" y="235.5" as="sourcePoint" />
            <mxPoint x="131" y="135.5" as="targetPoint" />
          </mxGeometry>
        </mxCell>
        <mxCell id="105" value="" style="edgeStyle=elbowEdgeStyle;elbow=vertical;strokeWidth=2;rounded=0" parent="1" source="4" target="44" edge="1">
          <mxGeometry x="-23" y="135.5" width="100" height="100" as="geometry">
            <mxPoint x="31" y="235.5" as="sourcePoint" />
            <mxPoint x="131" y="135.5" as="targetPoint" />
          </mxGeometry>
        </mxCell>
        <mxCell id="106" value="" style="edgeStyle=elbowEdgeStyle;elbow=vertical;strokeWidth=2;rounded=0" parent="1" source="4" target="52" edge="1">
          <mxGeometry x="-23" y="135.5" width="100" height="100" as="geometry">
            <mxPoint x="31" y="235.5" as="sourcePoint" />
            <mxPoint x="131" y="135.5" as="targetPoint" />
          </mxGeometry>
        </mxCell>
        <mxCell id="Db3YE-Otv-MuUvlxAtpo-123" value="" style="edgeStyle=elbowEdgeStyle;elbow=vertical;strokeWidth=2;rounded=0;entryX=0.448;entryY=0.032;entryDx=0;entryDy=0;entryPerimeter=0;exitX=0.5;exitY=1;exitDx=0;exitDy=0;" edge="1" parent="1">
          <mxGeometry x="-23" y="135.5" width="100" height="100" as="geometry">
            <mxPoint x="877" y="415.5" as="sourcePoint" />
            <mxPoint x="959.2399999999999" y="455.5" as="targetPoint" />
            <Array as="points">
              <mxPoint x="920" y="440" />
            </Array>
          </mxGeometry>
        </mxCell>
        <mxCell id="Db3YE-Otv-MuUvlxAtpo-125" value="finish working" style="rounded=1;fillColor=#23445D;gradientColor=none;strokeColor=none;fontColor=#FFFFFF;fontStyle=1;fontFamily=Tahoma;fontSize=14" vertex="1" parent="1">
          <mxGeometry x="887" y="455.5" width="130" height="60" as="geometry" />
        </mxCell>
        <mxCell id="Db3YE-Otv-MuUvlxAtpo-144" value="Technical Support" style="rounded=1;fillColor=#23445D;gradientColor=none;strokeColor=none;fontColor=#FFFFFF;fontStyle=1;fontFamily=Tahoma;fontSize=14" vertex="1" parent="1">
          <mxGeometry x="781.9999999999998" y="780" width="190" height="80" as="geometry" />
        </mxCell>
        <mxCell id="Db3YE-Otv-MuUvlxAtpo-145" value="Contact Us" style="rounded=1;fillColor=#23445D;gradientColor=none;strokeColor=none;fontColor=#FFFFFF;fontStyle=1;fontFamily=Tahoma;fontSize=14" vertex="1" parent="1">
          <mxGeometry x="637" y="900" width="130" height="60" as="geometry" />
        </mxCell>
        <mxCell id="Db3YE-Otv-MuUvlxAtpo-146" value="FAQ" style="rounded=1;fillColor=#23445D;gradientColor=none;strokeColor=none;fontColor=#FFFFFF;fontStyle=1;fontFamily=Tahoma;fontSize=14" vertex="1" parent="1">
          <mxGeometry x="812" y="900" width="130" height="60" as="geometry" />
        </mxCell>
        <mxCell id="Db3YE-Otv-MuUvlxAtpo-147" value="Chat bot " style="rounded=1;fillColor=#23445D;gradientColor=none;strokeColor=none;fontColor=#FFFFFF;fontStyle=1;fontFamily=Tahoma;fontSize=14" vertex="1" parent="1">
          <mxGeometry x="987" y="900" width="130" height="60" as="geometry" />
        </mxCell>
        <mxCell id="Db3YE-Otv-MuUvlxAtpo-148" value="" style="edgeStyle=elbowEdgeStyle;elbow=vertical;strokeWidth=2;rounded=0" edge="1" parent="1" source="Db3YE-Otv-MuUvlxAtpo-144" target="Db3YE-Otv-MuUvlxAtpo-146">
          <mxGeometry x="-23" y="135.5" width="100" height="100" as="geometry">
            <mxPoint x="-603" y="680" as="sourcePoint" />
            <mxPoint x="-503" y="580" as="targetPoint" />
          </mxGeometry>
        </mxCell>
        <mxCell id="Db3YE-Otv-MuUvlxAtpo-149" value="" style="edgeStyle=elbowEdgeStyle;elbow=vertical;strokeWidth=2;rounded=0" edge="1" parent="1" source="Db3YE-Otv-MuUvlxAtpo-144" target="Db3YE-Otv-MuUvlxAtpo-145">
          <mxGeometry x="-23" y="135.5" width="100" height="100" as="geometry">
            <mxPoint x="-603" y="680" as="sourcePoint" />
            <mxPoint x="-503" y="580" as="targetPoint" />
          </mxGeometry>
        </mxCell>
        <mxCell id="Db3YE-Otv-MuUvlxAtpo-150" value="" style="edgeStyle=elbowEdgeStyle;elbow=vertical;strokeWidth=2;rounded=0" edge="1" parent="1" source="Db3YE-Otv-MuUvlxAtpo-144" target="Db3YE-Otv-MuUvlxAtpo-147">
          <mxGeometry x="-23" y="135.5" width="100" height="100" as="geometry">
            <mxPoint x="-603" y="680" as="sourcePoint" />
            <mxPoint x="-503" y="580" as="targetPoint" />
          </mxGeometry>
        </mxCell>
        <mxCell id="Db3YE-Otv-MuUvlxAtpo-153" value="" style="edgeStyle=elbowEdgeStyle;elbow=vertical;strokeWidth=2;rounded=0;exitX=0.49;exitY=0.962;exitDx=0;exitDy=0;exitPerimeter=0;entryX=0.482;entryY=0.017;entryDx=0;entryDy=0;entryPerimeter=0;" edge="1" parent="1">
          <mxGeometry x="-23" y="135.5" width="100" height="100" as="geometry">
            <mxPoint x="610.31" y="415.77" as="sourcePoint" />
            <mxPoint x="609.69" y="455" as="targetPoint" />
          </mxGeometry>
        </mxCell>
        <mxCell id="Db3YE-Otv-MuUvlxAtpo-154" value="" style="fillColor=#12AAB5;strokeColor=none;opacity=30;" vertex="1" parent="1">
          <mxGeometry x="540" y="450.5" width="140" height="70" as="geometry" />
        </mxCell>
        <mxCell id="Db3YE-Otv-MuUvlxAtpo-155" value="Working hours Form" style="rounded=1;fillColor=#23445D;gradientColor=none;strokeColor=none;fontColor=#FFFFFF;fontStyle=1;fontFamily=Tahoma;fontSize=12;spacing=1;" vertex="1" parent="1">
          <mxGeometry x="545" y="455.5" width="130" height="60" as="geometry" />
        </mxCell>
        <mxCell id="Db3YE-Otv-MuUvlxAtpo-156" value="" style="edgeStyle=elbowEdgeStyle;elbow=vertical;strokeWidth=2;rounded=0" edge="1" parent="1">
          <mxGeometry x="-23" y="135.5" width="100" height="100" as="geometry">
            <mxPoint x="1139.67" y="300" as="sourcePoint" />
            <mxPoint x="1140.0800000000002" y="335.5" as="targetPoint" />
            <Array as="points">
              <mxPoint x="1162.88" y="318" />
            </Array>
          </mxGeometry>
        </mxCell>
        <mxCell id="Db3YE-Otv-MuUvlxAtpo-157" value="News" style="rounded=1;fillColor=#23445D;gradientColor=none;strokeColor=none;fontColor=#FFFFFF;fontStyle=1;fontFamily=Tahoma;fontSize=14" vertex="1" parent="1">
          <mxGeometry x="1044.9999999999998" y="335.5" width="190" height="80" as="geometry" />
        </mxCell>
        <mxCell id="Db3YE-Otv-MuUvlxAtpo-166" value="" style="edgeStyle=elbowEdgeStyle;elbow=vertical;strokeWidth=2;rounded=0" edge="1" parent="1">
          <mxGeometry x="-23" y="135.5" width="100" height="100" as="geometry">
            <mxPoint x="610" y="300" as="sourcePoint" />
            <mxPoint x="610.4100000000001" y="335.5" as="targetPoint" />
            <Array as="points">
              <mxPoint x="635.21" y="320" />
            </Array>
          </mxGeometry>
        </mxCell>
        <mxCell id="Db3YE-Otv-MuUvlxAtpo-167" value="" style="fillColor=#12AAB5;strokeColor=none;opacity=30;" vertex="1" parent="1">
          <mxGeometry x="1070" y="450.5" width="140" height="70" as="geometry" />
        </mxCell>
        <mxCell id="Db3YE-Otv-MuUvlxAtpo-168" value="FAQ" style="rounded=1;fillColor=#23445D;gradientColor=none;strokeColor=none;fontColor=#FFFFFF;fontStyle=1;fontFamily=Tahoma;fontSize=14" vertex="1" parent="1">
          <mxGeometry x="1075" y="455" width="130" height="60" as="geometry" />
        </mxCell>
        <mxCell id="Db3YE-Otv-MuUvlxAtpo-170" value="" style="edgeStyle=elbowEdgeStyle;elbow=vertical;strokeWidth=2;rounded=0;exitX=0.49;exitY=0.962;exitDx=0;exitDy=0;exitPerimeter=0;entryX=0.482;entryY=0.017;entryDx=0;entryDy=0;entryPerimeter=0;" edge="1" parent="1">
          <mxGeometry x="-23" y="135.5" width="100" height="100" as="geometry">
            <mxPoint x="1139.96" y="415.81" as="sourcePoint" />
            <mxPoint x="1139.44" y="455.50000000000006" as="targetPoint" />
            <Array as="points">
              <mxPoint x="1179.44" y="423.5" />
            </Array>
          </mxGeometry>
        </mxCell>
      </root>
    </mxGraphModel>
  </diagram>
</mxfile>
